<svg width="101" height="101" viewBox="0 0 101 101" fill="none" xmlns="http://www.w3.org/2000/svg">
<path d="M50.5 100.996C78.1142 100.996 100.5 78.6105 100.5 50.9962C100.5 23.3819 78.1142 0.996094 50.5 0.996094C22.8858 0.996094 0.5 23.3819 0.5 50.9962C0.5 78.6105 22.8858 100.996 50.5 100.996Z" fill="#1E96FC"/>
<path d="M26.8747 37.9963C26.3026 37.6577 25.672 37.4297 25.0157 37.3243C24.7656 37.2838 24.527 37.1908 24.3156 37.0513L24.1436 37.1063C23.9194 37.1738 23.7042 37.2681 23.5026 37.3873C23.328 37.4829 23.1632 37.5954 23.0106 37.7233C20.9928 39.4225 19.4862 41.6484 18.6586 44.1533C18.495 44.667 18.4362 45.2083 18.4858 45.7452C18.5355 46.282 18.6925 46.8034 18.9476 47.2783C22.8902 54.4377 27.717 61.073 33.3147 67.0284C39.1007 73.1701 45.6658 78.528 52.8427 82.9655C53.2982 83.2424 53.8048 83.4246 54.3323 83.501C54.8599 83.5775 55.3974 83.5467 55.9127 83.4105C58.4585 82.7147 60.7604 81.3242 62.5607 79.3945C62.8471 79.081 63.0747 78.7186 63.2327 78.3245L63.5217 77.5435C63.2149 76.7817 62.847 76.046 62.4217 75.3435C61.6324 74.2168 60.6639 73.2271 59.5547 72.4134C57.0595 70.6425 54.1519 69.5408 51.1097 69.2134C50.8967 69.1903 50.69 69.1269 50.5007 69.0264C50.2347 69.2534 49.9697 69.4794 49.7197 69.6904C49.1217 70.201 48.4598 70.6316 47.7507 70.9714C46.2737 71.5804 44.6257 69.9944 44.6257 69.9944L38.3257 63.4944L31.4897 56.1424C31.4897 56.1424 29.9977 54.4234 30.7087 52.9703C31.1187 52.2272 31.6288 51.5438 32.2247 50.9393C32.5057 50.6193 32.8027 50.3063 33.0917 49.9943L33.0287 49.8533C32.1147 47.3533 31.2007 43.2533 29.3097 40.4163L26.8747 37.9963Z" fill="#3A556A"/>
<path d="M63.2732 78.2936L64.1872 75.9496C64.3348 75.5577 64.3624 75.1307 64.2664 74.723C64.1704 74.3154 63.9552 73.9455 63.6482 73.6606C59.4762 69.7547 53.8752 66.6297 52.6402 67.4107C51.8592 67.9267 50.7732 68.9107 49.7402 69.7547C54.6197 71.9841 59.1699 74.8731 63.2632 78.3406L63.2732 78.2936Z" fill="#3A556A"/>
<path d="M33.1328 44.2618L25.4998 36.6528L24.1058 37.1028C23.8816 37.1703 23.6664 37.2647 23.4648 37.3838C26.9777 41.4715 29.9091 46.0249 32.1758 50.9148C33.0278 49.9618 33.9958 49.0088 34.5198 48.2738C34.9338 47.6878 34.4568 46.0158 33.4338 43.9538L33.1328 44.2618Z" fill="#3A556A"/>
<path d="M24.4577 34.2546L21.205 37.5072C20.793 37.9192 20.793 38.5872 21.205 38.9992L32.4939 50.2878C32.9059 50.6998 33.5739 50.6998 33.9859 50.2878L37.2386 47.0352C37.6506 46.6232 37.6506 45.9552 37.2386 45.5432L25.9497 34.2546C25.5377 33.8426 24.8697 33.8426 24.4577 34.2546Z" fill="#2F4859"/>
<path d="M55.4612 63.7545L66.7502 75.0431C66.8482 75.1411 66.9259 75.2574 66.9789 75.3854C67.0319 75.5134 67.0592 75.6506 67.0592 75.7891C67.0592 75.9277 67.0319 76.0648 66.9789 76.1928C66.9259 76.3208 66.8482 76.4371 66.7502 76.5351L63.5002 79.793C63.3014 79.9891 63.0334 80.0991 62.7542 80.0991C62.4749 80.0991 62.2069 79.9891 62.0082 79.793L50.7192 68.5024C50.6212 68.4044 50.5435 68.2881 50.4905 68.1601C50.4374 68.0321 50.4102 67.8949 50.4102 67.7564C50.4102 67.6178 50.4374 67.4806 50.4905 67.3527C50.5435 67.2247 50.6212 67.1084 50.7192 67.0104L53.9692 63.7525C54.168 63.5566 54.436 63.4468 54.7152 63.4468C54.9943 63.4468 55.2623 63.5566 55.4612 63.7525V63.7545Z" fill="#2F4859"/>
<path d="M64.3201 18.4497C61.0162 18.448 57.7741 19.3457 54.9416 21.0465C52.1091 22.7473 49.793 25.187 48.2417 28.1041C46.6904 31.0211 45.9624 34.3054 46.1359 37.6048C46.3093 40.9041 47.3776 44.094 49.2261 46.8323L43.0781 58.9722L53.8591 51.5423C56.1994 53.1861 58.894 54.2553 61.7247 54.6632C64.5553 55.071 67.4423 54.8061 70.1514 53.8899C72.8605 52.9736 75.3156 51.4318 77.3176 49.3895C79.3195 47.3472 80.812 44.8619 81.674 42.135C82.536 39.4082 82.7432 36.5166 82.2789 33.6947C81.8146 30.8728 80.6918 28.2 79.0016 25.8931C77.3113 23.5861 75.1012 21.71 72.5504 20.4168C69.9996 19.1236 67.18 18.4497 64.3201 18.4497Z" fill="#FCD462"/>
<path d="M59.0941 39.1359V40.1018H53.7061C53.698 39.863 53.7378 39.625 53.8231 39.4018C53.9569 39.0099 54.1549 38.6429 54.4091 38.3159C54.8122 37.8697 55.251 37.457 55.7211 37.082C56.3861 36.5795 56.994 36.0058 57.5341 35.3711C57.8145 35.0315 57.9789 34.611 58.0031 34.1712C58.0073 33.9823 57.9711 33.7946 57.8969 33.6208C57.8228 33.447 57.7124 33.291 57.5731 33.1632C57.4248 33.0248 57.2503 32.9176 57.0598 32.8478C56.8693 32.7781 56.6667 32.7473 56.4641 32.7573C56.2523 32.7468 56.0406 32.7795 55.8419 32.8534C55.6432 32.9273 55.4616 33.0409 55.3081 33.1872C55.1584 33.3476 55.0425 33.5365 54.9674 33.7427C54.8924 33.9489 54.8596 34.1681 54.8711 34.3872L53.8401 34.2872C53.8589 33.6213 54.1396 32.9896 54.6211 32.5293C55.1439 32.1088 55.8031 31.8953 56.4731 31.9293C56.8104 31.9099 57.1481 31.9571 57.4671 32.0682C57.7861 32.1794 58.08 32.3524 58.3321 32.5773C58.5545 32.7829 58.7307 33.0333 58.8491 33.312C58.9675 33.5907 59.0255 33.8914 59.0191 34.1942C59.0174 34.5246 58.9494 34.8514 58.8191 35.1551C58.6647 35.5211 58.4508 35.8589 58.1861 36.1551C57.6969 36.6674 57.1751 37.1477 56.6241 37.593C56.0241 38.1009 55.6401 38.4449 55.4681 38.6239C55.3085 38.7878 55.167 38.9686 55.0461 39.1629L59.0941 39.1359Z" fill="#3A556A"/>
<path d="M63.3441 40.1018V38.1439H59.8062V37.2299L63.5251 31.9412H64.3061V37.2299H65.4061V38.1439H64.3441V40.1018H63.3441ZM63.3441 37.2349V33.5551L60.7891 37.2349H63.3441Z" fill="#3A556A"/>
<path d="M65.9922 40.2383L68.3591 31.8022H69.1591L66.8062 40.2383H65.9922Z" fill="#3A556A"/>
<path d="M69.7061 33.0273V32.0503H74.9871V32.8313C74.383 33.5017 73.8588 34.24 73.4251 35.0313C72.9281 35.9273 72.5323 36.8758 72.2451 37.8593C72.0352 38.5903 71.9068 39.3422 71.8621 40.1013H70.8121C70.8445 39.308 70.9703 38.5212 71.1871 37.7573C71.4326 36.8431 71.7811 35.9598 72.2261 35.1243C72.6351 34.3712 73.1279 33.6668 73.6951 33.0243L69.7061 33.0273Z" fill="#3A556A"/>
</svg>
