<svg width="101" height="101" viewBox="0 0 101 101" fill="none" xmlns="http://www.w3.org/2000/svg">
<path d="M50.501 100.998C78.1152 100.998 100.501 78.6118 100.501 50.9976C100.501 23.3833 78.1152 0.997559 50.501 0.997559C22.8867 0.997559 0.500977 23.3833 0.500977 50.9976C0.500977 78.6118 22.8867 100.998 50.501 100.998Z" fill="#EA8953"/>
<path opacity="0.1" d="M98.101 66.3153L78.708 46.9233C78.7 46.9143 78.697 46.9023 78.688 46.8933L77.146 45.3623L73.375 41.5913C73.283 41.4955 73.1723 41.4195 73.0499 41.368C72.9275 41.3164 72.7959 41.2903 72.663 41.2913L64.948 33.5763L53.72 22.3513H22.02V79.6434L42.781 100.402C54.5499 102.233 66.5859 99.8067 76.7259 93.5586C86.8659 87.3106 94.445 77.6508 98.101 66.3153Z" fill="black"/>
<path d="M53.7169 22.3513H22.0269V79.6431H64.9479V33.5823L53.7169 22.3513Z" fill="#E1E6E9"/>
<path d="M53.7169 22.3513H22.0269V77.5601H64.9479V33.5823L53.7169 22.3513Z" fill="white"/>
<path d="M53.7168 33.5823H64.9468L53.7168 22.3513V33.5823Z" fill="#EBF0F3"/>
<path d="M53.7168 33.5823L64.9468 40.8672V33.5823H53.7168Z" fill="#E1E6E9"/>
<path d="M52.908 32.5391H34.064V34.2573H52.908V32.5391Z" fill="#27A2DB"/>
<path d="M59.9151 40.0076H27.0591V41.7261H59.9151V40.0076Z" fill="#E1E6E9"/>
<path d="M59.9151 45.3723H27.0591V47.0903H59.9151V45.3723Z" fill="#E1E6E9"/>
<path d="M59.9151 50.7271H27.0591V52.4451H59.9151V50.7271Z" fill="#E1E6E9"/>
<path d="M59.9151 56.0884H27.0591V57.8064H59.9151V56.0884Z" fill="#E1E6E9"/>
<path d="M59.9151 61.4453H27.0591V63.1636H59.9151V61.4453Z" fill="#E1E6E9"/>
<path d="M38.1941 66.8101H27.0591V68.5283H38.1941V66.8101Z" fill="#E56353"/>
<path d="M73.6327 53.3507L71.394 51.1121L51.2833 71.2225L53.522 73.4612L73.6327 53.3507Z" fill="#44C4A1"/>
<path d="M71.3896 51.11L69.1509 48.8713L49.0394 68.9827L51.2781 71.2214L71.3896 51.11Z" fill="#3EA69B"/>
<path d="M69.1557 48.88L66.917 46.6414L46.8061 66.752L49.0448 68.9907L69.1557 48.88Z" fill="#31978C"/>
<path d="M74.4224 52.5637L67.707 45.8484L66.9158 46.6396L73.6312 53.355L74.4224 52.5637Z" fill="#E56353"/>
<path d="M78.6831 46.8973L77.1491 45.3633L72.1841 50.3284L74.4221 52.5664L78.6841 48.2973C78.8672 48.1103 78.9696 47.8589 78.9694 47.5971C78.9692 47.3354 78.8664 47.0841 78.6831 46.8973Z" fill="#64798A"/>
<path d="M72.1827 50.3276L77.1479 45.3621L74.9093 43.1233L69.944 48.0888L72.1827 50.3276Z" fill="#3A556A"/>
<path d="M74.911 43.1203L73.377 41.5862C73.1897 41.4006 72.9367 41.2964 72.673 41.2964C72.4093 41.2964 72.1563 41.4006 71.969 41.5862L67.707 45.8474L69.945 48.0854L74.911 43.1203Z" fill="#2F4859"/>
<path d="M46.8008 66.7505L45.0688 72.5973C45.4123 72.5898 45.7538 72.6519 46.0726 72.7799C46.3915 72.9079 46.6811 73.0992 46.924 73.3421C47.167 73.5851 47.3582 73.8747 47.4862 74.1935C47.6142 74.5123 47.6763 74.8538 47.6688 75.1973L53.5178 73.4613L46.8008 66.7505Z" fill="#FCD462"/>
<path d="M46.9257 73.3426C46.6825 73.0994 46.3926 72.9081 46.0735 72.78C45.7543 72.652 45.4125 72.5899 45.0687 72.5976L44.2307 75.4208C44.2066 75.5064 44.2057 75.5968 44.2281 75.6828C44.2505 75.7688 44.2955 75.8473 44.3584 75.9102C44.4212 75.973 44.4997 76.018 44.5857 76.0404C44.6717 76.0629 44.7622 76.062 44.8477 76.0378L47.6707 75.1968C47.6779 74.8535 47.6156 74.5122 47.4875 74.1936C47.3595 73.875 47.1684 73.5855 46.9257 73.3426Z" fill="#64798A"/>
</svg>
