<svg width="42" height="35" viewBox="0 0 42 35" fill="none" xmlns="http://www.w3.org/2000/svg">
<path d="M38.5 28.001H3.5C1.567 28.001 0 29.568 0 31.501C0 33.434 1.567 35.001 3.5 35.001H38.5C40.433 35.001 42 33.434 42 31.501C42 29.568 40.433 28.001 38.5 28.001Z" fill="#006BA6"/>
<path d="M38.5 28.501H3.5C1.84315 28.501 0.5 29.8441 0.5 31.501C0.5 33.1578 1.84315 34.501 3.5 34.501H38.5C40.1569 34.501 41.5 33.1578 41.5 31.501C41.5 29.8441 40.1569 28.501 38.5 28.501Z" stroke="#006BA6"/>
<path d="M38.5 14.001H3.5C1.567 14.001 0 15.568 0 17.501C0 19.434 1.567 21.001 3.5 21.001H38.5C40.433 21.001 42 19.434 42 17.501C42 15.568 40.433 14.001 38.5 14.001Z" fill="#006BA6"/>
<path d="M38.5 14.501H3.5C1.84315 14.501 0.5 15.8441 0.5 17.501C0.5 19.1578 1.84315 20.501 3.5 20.501H38.5C40.1569 20.501 41.5 19.1578 41.5 17.501C41.5 15.8441 40.1569 14.501 38.5 14.501Z" stroke="#006BA6"/>
<path d="M38.5 0.000976562H3.5C1.567 0.000976562 0 1.56798 0 3.50098C0 5.43397 1.567 7.00098 3.5 7.00098H38.5C40.433 7.00098 42 5.43397 42 3.50098C42 1.56798 40.433 0.000976562 38.5 0.000976562Z" fill="#006BA6"/>
<path d="M38.5 0.500977H3.5C1.84315 0.500977 0.5 1.84412 0.5 3.50098C0.5 5.15783 1.84315 6.50098 3.5 6.50098H38.5C40.1569 6.50098 41.5 5.15783 41.5 3.50098C41.5 1.84412 40.1569 0.500977 38.5 0.500977Z" stroke="#006BA6"/>
</svg>
