<svg width="104" height="78" viewBox="0 0 104 78" fill="none" xmlns="http://www.w3.org/2000/svg">
<path d="M35.3244 76.4677L1.52301 42.4765C0.54784 41.4957 0 40.1655 0 38.7784C0 37.3913 0.54784 36.0611 1.52301 35.0802L8.87689 27.684C9.85209 26.7032 11.1747 26.1522 12.5538 26.1522C13.933 26.1522 15.2556 26.7032 16.2308 27.684L39.0054 50.5797L87.7722 1.53179C88.7474 0.550998 90.0701 0 91.4492 0C92.8283 0 94.1509 0.550998 95.1261 1.53179L102.477 8.92402C103.452 9.90484 104 11.2351 104 12.6222C104 14.0092 103.452 15.3395 102.477 16.3203L42.6783 76.4687C41.703 77.4494 40.3803 78.0002 39.0011 78C37.622 77.9998 36.2995 77.4486 35.3244 76.4677Z" fill="#00BA51"/>
</svg>
