<svg width="26" height="22" viewBox="0 0 26 22" fill="none" xmlns="http://www.w3.org/2000/svg">
<path fill-rule="evenodd" clip-rule="evenodd" d="M12.2868 6.20761L12.3408 7.10762L11.4308 6.99663C8.14433 6.58384 5.09107 5.08146 2.75876 2.72954L1.55878 1.52952L1.24976 2.41353C0.915424 3.33661 0.844055 4.3344 1.04358 5.29567C1.2431 6.25693 1.70568 7.14388 2.37976 7.85764C3.10776 8.63065 2.94276 8.73966 1.68576 8.28065C1.41759 8.15474 1.12597 8.0866 0.829773 8.08065C0.886751 8.93706 1.10952 9.77424 1.48575 10.5457C2.06659 11.5614 2.93697 12.381 3.98575 12.8997L4.87976 13.3227L3.82275 13.3407C2.80175 13.3407 2.76676 13.3587 2.87576 13.7457C3.1962 14.4621 3.66589 15.1017 4.25345 15.6218C4.84101 16.142 5.5329 16.5306 6.28278 16.7618L7.41077 17.1478L6.42776 17.7358C4.94023 18.5915 3.26146 19.0596 1.54578 19.0969C1.04332 19.0766 0.540468 19.1264 0.0517578 19.2448C1.14204 19.9465 2.32564 20.4912 3.56775 20.8629C5.54925 21.4503 7.62881 21.6326 9.68228 21.3988C11.7358 21.1649 13.7211 20.5198 15.5198 19.5019C18.2088 17.7814 20.3217 15.2958 21.5868 12.3647C22.2727 10.5978 22.6904 8.73818 22.8258 6.84762C22.8258 6.00061 22.8797 5.8906 23.8997 4.87958C24.3614 4.44193 24.7878 3.96845 25.1748 3.46356C25.3568 3.11355 25.3388 3.11355 24.4098 3.42655C22.8618 3.97856 22.6438 3.90556 23.4098 3.07654C23.9623 2.51948 24.3853 1.84756 24.6488 1.10852C24.6488 1.05352 24.3758 1.14552 24.0658 1.30852C23.5509 1.56131 23.0157 1.77038 22.4658 1.93353L21.4808 2.24654L20.5888 1.63952C20.1063 1.31005 19.5867 1.03852 19.0408 0.830513C17.9895 0.577545 16.8904 0.602702 15.8518 0.903512C14.7581 1.27428 13.8167 1.99435 13.1725 2.95279C12.5283 3.91123 12.2171 5.05489 12.2868 6.20761Z" fill="white"/>
</svg>
