<svg width="29" height="21" viewBox="0 0 29 21" fill="none" xmlns="http://www.w3.org/2000/svg">
<path fill-rule="evenodd" clip-rule="evenodd" d="M25.14 1.12833C25.7346 1.29672 26.2745 1.61833 26.7057 2.06094C27.1369 2.50356 27.4442 3.05166 27.597 3.6504C28.3696 8.19493 28.3696 12.8373 27.597 17.3818C27.4439 17.9805 27.1365 18.5286 26.7053 18.9713C26.2742 19.414 25.7345 19.736 25.14 19.9049C22.973 20.5049 14.285 20.5049 14.285 20.5049C14.285 20.5049 5.59705 20.5049 3.43005 19.9049C2.83567 19.7361 2.29601 19.4142 1.86502 18.9714C1.43402 18.5287 1.12678 17.9805 0.974024 17.3818C0.201367 12.8373 0.201367 8.19493 0.974024 3.6504C1.12647 3.05165 1.43363 2.50347 1.86468 2.06082C2.29573 1.61817 2.83556 1.2966 3.43005 1.12833C5.59705 0.528311 14.285 0.52832 14.285 0.52832C14.285 0.52832 22.973 0.531311 25.14 1.12833ZM11.681 6.60949V15.2907L18.627 10.9486L11.681 6.60949Z" fill="white"/>
</svg>
