<svg width="101" height="101" viewBox="0 0 101 101" fill="none" xmlns="http://www.w3.org/2000/svg">
<path d="M50.501 100.999C78.1152 100.999 100.501 78.6128 100.501 50.9985C100.501 23.3843 78.1152 0.998535 50.501 0.998535C22.8867 0.998535 0.500977 23.3843 0.500977 50.9985C0.500977 78.6128 22.8867 100.999 50.501 100.999Z" fill="#4ABBA4"/>
<path opacity="0.1" d="M76.5541 28.4321C76.3319 28.1836 76.0597 27.9849 75.7553 27.8489C75.451 27.713 75.1214 27.6428 74.7881 27.6431H22.7581C22.12 27.6433 21.5082 27.8969 21.057 28.3481C20.6059 28.7992 20.3523 29.411 20.3521 30.0491V63.4492C20.3534 64.0775 20.6003 64.6804 21.0401 65.1292L56.5401 100.635C68.4358 99.1874 79.4158 93.5154 87.4808 84.6519C95.5458 75.7885 100.159 64.3233 100.481 52.3441L76.5621 28.4241L76.5541 28.4321Z" fill="black"/>
<path d="M74.788 27.6416H22.761C22.4448 27.6416 22.1317 27.7039 21.8395 27.8249C21.5474 27.9459 21.2819 28.1233 21.0583 28.3469C20.8347 28.5705 20.6573 28.8359 20.5363 29.1281C20.4153 29.4202 20.353 29.7334 20.353 30.0496V63.4494C20.353 63.7657 20.4153 64.0788 20.5363 64.3709C20.6573 64.6631 20.8347 64.9285 21.0583 65.1521C21.2819 65.3757 21.5474 65.5531 21.8395 65.6741C22.1317 65.7951 22.4448 65.8574 22.761 65.8574H74.788C75.4267 65.8574 76.0392 65.6037 76.4908 65.1521C76.9423 64.7006 77.196 64.0881 77.196 63.4494V30.0496C77.196 29.7334 77.1338 29.4202 77.0127 29.1281C76.8917 28.8359 76.7144 28.5705 76.4908 28.3469C76.2671 28.1233 76.0017 27.9459 75.7095 27.8249C75.4174 27.7039 75.1043 27.6416 74.788 27.6416Z" fill="#FEDA6F"/>
<path d="M20.353 34.115H77.196V41.062H20.353V34.115Z" fill="#3A556A"/>
<path d="M82.2322 48.4528V63.4047C82.2322 71.3876 67.9132 79.3096 67.9132 79.3096C67.9132 79.3096 53.4912 71.3886 53.4912 63.4097V48.4528C58.1482 49.2738 63.5682 47.4998 67.8642 44.4119C72.1642 47.4998 77.5802 49.2738 82.2372 48.4528H82.2322Z" fill="#DD584D"/>
<path d="M67.9063 77.682C63.7213 75.237 54.9062 68.9349 54.9062 63.4058V50.0406C55.2176 50.0593 55.5323 50.0686 55.8503 50.0686C60.1492 49.9333 64.319 48.5669 67.8643 46.1316C71.4082 48.5658 75.5761 49.9322 79.8733 50.0686C80.1893 50.0686 80.5043 50.0596 80.8163 50.0406V63.4108C80.8163 68.9489 72.0633 75.243 67.9053 77.687L67.9063 77.682Z" fill="#CD5248"/>
<path d="M67.86 69.0837C72.5241 69.0837 76.3051 65.3028 76.3051 60.6387C76.3051 55.9746 72.5241 52.1936 67.86 52.1936C63.196 52.1936 59.415 55.9746 59.415 60.6387C59.415 65.3028 63.196 69.0837 67.86 69.0837Z" fill="#EBF0F3"/>
<path d="M65.2758 65.0803C65.1022 65.0801 64.9357 65.0111 64.8128 64.8883L62.4128 62.4884C62.2964 62.3637 62.233 62.1986 62.2359 62.0281C62.2389 61.8575 62.3079 61.6948 62.4286 61.5742C62.5492 61.4535 62.7119 61.3845 62.8825 61.3815C63.0531 61.3786 63.2181 61.442 63.3428 61.5584L65.2818 63.4974L72.3818 56.3975C72.4421 56.3329 72.5147 56.2812 72.5954 56.2453C72.6761 56.2094 72.7632 56.1901 72.8515 56.1886C72.9398 56.1871 73.0276 56.2033 73.1094 56.2364C73.1913 56.2695 73.2657 56.3187 73.3281 56.3812C73.3906 56.4436 73.4398 56.518 73.4729 56.5999C73.506 56.6818 73.5223 56.7695 73.5208 56.8578C73.5193 56.9461 73.5 57.0332 73.4641 57.1139C73.4282 57.1946 73.3764 57.2672 73.3118 57.3275L65.7418 64.8973C65.6808 64.9585 65.6084 65.0071 65.5286 65.0402C65.4488 65.0733 65.3632 65.0904 65.2768 65.0903L65.2758 65.0803Z" fill="#D5D6DB"/>
</svg>
