<svg width="101" height="101" viewBox="0 0 101 101" fill="none" xmlns="http://www.w3.org/2000/svg">
<path d="M50.5 100.998C78.1142 100.998 100.5 78.6118 100.5 50.9976C100.5 23.3833 78.1142 0.997559 50.5 0.997559C22.8858 0.997559 0.5 23.3833 0.5 50.9976C0.5 78.6118 22.8858 100.998 50.5 100.998Z" fill="#D5D6DB"/>
<path d="M78.5863 29.4734H22.4063C21.3017 29.4734 20.4062 30.3688 20.4062 31.4734V65.3096C20.4062 66.4141 21.3017 67.3096 22.4063 67.3096H78.5863C79.6908 67.3096 80.5863 66.4141 80.5863 65.3096V31.4734C80.5863 30.3688 79.6908 29.4734 78.5863 29.4734Z" fill="#3A556A"/>
<path d="M24.4219 33.3726H76.5859V63.4194H24.4219V33.3726Z" fill="#FE7058"/>
<path d="M83.234 67.3174H17.765C17.5576 67.3162 17.3538 67.3709 17.1749 67.4756C16.9959 67.5802 16.8484 67.7311 16.7478 67.9124C16.6472 68.0937 16.5972 68.2987 16.603 68.506C16.6088 68.7132 16.6703 68.9151 16.781 69.0904L18.125 71.2545C18.3628 71.6417 18.6961 71.9615 19.0928 72.1832C19.4895 72.4048 19.9365 72.521 20.391 72.5205H80.606C81.0604 72.521 81.5074 72.4048 81.9042 72.1832C82.3009 71.9615 82.6342 71.6417 82.872 71.2545L84.216 69.0904C84.3267 68.9151 84.3881 68.7132 84.394 68.506C84.3998 68.2987 84.3498 68.0937 84.2492 67.9124C84.1486 67.7311 84.0011 67.5802 83.8221 67.4756C83.6431 67.3709 83.4393 67.3162 83.232 67.3174H83.234Z" fill="#2F4859"/>
<path d="M46.9141 67.3174H54.0781V68.4172H46.9141V67.3174Z" fill="#3A556A"/>
<path d="M47.125 46.8179H53.875V53.6616H47.125V46.8179Z" fill="#F7BE56"/>
<path d="M63.0002 63.4033V58.3253C62.8482 57.0203 62.3336 55.784 61.5147 54.7566C60.6958 53.7291 59.6054 52.9517 58.3672 52.5124L53.1672 50.7854L50.4952 53.6374L47.8082 50.7854L42.6082 52.5124C41.3731 52.954 40.2862 53.7324 39.4703 54.7595C38.6544 55.7865 38.142 57.0214 37.9912 58.3243V63.4033H63.0002Z" fill="#D5D6DB"/>
<path d="M49.0859 63.4033H51.9449L51.3899 56.5032L52.1899 55.1122L51.3539 53.6592H49.6739L48.8379 55.1122L49.6379 56.5122L49.0859 63.4033Z" fill="#27A2DB"/>
<path d="M53.8981 49.6926L50.498 53.6377L52.6391 56.3718L55.1471 51.4417L53.8981 49.6926Z" fill="#EBF0F3"/>
<path d="M47.1059 49.6926L50.506 53.6377L48.3649 56.3718L45.8569 51.4417L47.1059 49.6926Z" fill="#EBF0F3"/>
<path d="M55.969 42.247C55.5861 42.2 55.1881 42.9349 55.0631 43.8798C54.9381 44.8247 55.1571 45.6377 55.54 45.6797C55.923 45.7216 56.321 44.9997 56.446 44.0468C56.571 43.0939 56.344 42.294 55.969 42.247Z" fill="#FCD462"/>
<path d="M45.0311 42.247C45.4141 42.2 45.8121 42.9349 45.9371 43.8798C46.0621 44.8247 45.8431 45.6377 45.4601 45.6797C45.0771 45.7216 44.6791 44.9997 44.5541 44.0468C44.4291 43.0939 44.6561 42.294 45.0311 42.247Z" fill="#FCD462"/>
<path d="M55.0621 37.8721L53.3201 36.7471H47.7891L46.0471 37.8721L45.2661 40.8251L45.4931 43.5591C45.5391 44.6558 45.6671 45.7475 45.8761 46.8251C46.1421 47.7551 46.4761 47.9421 47.3921 49.0251C48.3081 50.1081 48.7921 50.853 50.5721 50.783C52.3531 50.853 52.8451 50.1031 53.7601 49.0251C54.6751 47.9471 55.0101 47.7521 55.2761 46.8251C55.4836 45.7475 55.609 44.6556 55.6511 43.5591L55.8781 40.8251L55.0621 37.8721Z" fill="#FCD462"/>
<path d="M55.3899 44.2312C55.848 43.0311 56.0852 41.758 56.0899 40.4734C55.9899 38.7734 55.8169 35.9735 53.4899 36.0125C53.4899 36.0125 53.3339 34.8406 51.3179 34.8406C50.3134 34.8537 49.3217 35.0678 48.4013 35.4704C47.4809 35.873 46.6504 36.4558 45.9589 37.1845C44.9429 38.4574 45.0369 39.9844 45.1779 41.4033C45.3189 42.8223 45.4779 43.8093 45.4779 43.8093H45.8689C45.8002 42.9614 45.8905 42.1081 46.1349 41.2934C46.5259 40.3404 47.1269 39.5204 47.8349 39.4934C47.8349 39.4934 50.7649 40.5014 51.3119 37.9315C51.6009 36.5485 52.9289 37.6815 52.9289 37.6815C52.9289 37.6815 53.1629 37.4005 53.8899 38.8814C54.5608 39.9837 54.9375 41.2398 54.9839 42.5293C54.9711 43.1266 55.0383 43.7229 55.1839 44.3022L55.3899 44.2312Z" fill="#3A556A"/>
<path d="M71.078 41.1763H60.062V48.1142H61.606V50.7861L63.637 48.1142H71.075L71.078 41.1763Z" fill="#E1E6E9"/>
<path d="M63.554 44.0037C63.4316 44.0037 63.312 44.0401 63.2104 44.1083C63.1087 44.1764 63.0297 44.2733 62.9832 44.3865C62.9367 44.4997 62.925 44.6242 62.9495 44.7441C62.9739 44.864 63.0335 44.9739 63.1206 45.0599C63.2077 45.1459 63.3184 45.204 63.4386 45.2269C63.5588 45.2498 63.6831 45.2364 63.7957 45.1885C63.9083 45.1406 64.0041 45.0602 64.0709 44.9577C64.1377 44.8552 64.1726 44.7351 64.171 44.6128C64.171 44.5321 64.155 44.4522 64.1239 44.3778C64.0928 44.3034 64.0472 44.2359 63.9898 44.1792C63.9324 44.1226 63.8643 44.0779 63.7895 44.0478C63.7147 44.0176 63.6346 44.0027 63.554 44.0037Z" fill="#3A556A"/>
<path d="M65.5698 44.0037C65.4471 44.0021 65.3267 44.0372 65.224 44.1044C65.1213 44.1715 65.041 44.2678 64.9933 44.3808C64.9456 44.4939 64.9327 44.6186 64.9563 44.739C64.9798 44.8594 65.0388 44.9701 65.1255 45.0568C65.2123 45.1436 65.323 45.2025 65.4434 45.2261C65.5638 45.2496 65.6886 45.2367 65.8016 45.1891C65.9147 45.1414 66.011 45.0611 66.0781 44.9584C66.1453 44.8557 66.1804 44.7353 66.1788 44.6127C66.1788 44.4512 66.1146 44.2963 66.0004 44.1821C65.8862 44.0679 65.7313 44.0037 65.5698 44.0037Z" fill="#3A556A"/>
<path d="M67.5779 44.0037C67.4555 44.0037 67.3359 44.0401 67.2343 44.1083C67.1327 44.1764 67.0536 44.2733 67.0071 44.3865C66.9607 44.4997 66.9489 44.6242 66.9734 44.7441C66.9979 44.864 67.0574 44.9739 67.1445 45.0599C67.2316 45.1459 67.3423 45.204 67.4625 45.2269C67.5827 45.2498 67.707 45.2364 67.8196 45.1885C67.9322 45.1406 68.028 45.0602 68.0948 44.9577C68.1617 44.8552 68.1965 44.7351 68.1949 44.6128C68.1949 44.5321 68.1789 44.4522 68.1478 44.3778C68.1167 44.3034 68.0711 44.2359 68.0137 44.1792C67.9563 44.1226 67.8882 44.0779 67.8134 44.0478C67.7386 44.0176 67.6586 44.0027 67.5779 44.0037Z" fill="#3A556A"/>
</svg>
