<svg width="29" height="28" viewBox="0 0 29 28" fill="none" xmlns="http://www.w3.org/2000/svg">
<path fill-rule="evenodd" clip-rule="evenodd" d="M14.6781 0.191406C10.9051 0.191406 10.4311 0.207414 8.95011 0.274415C7.79805 0.298094 6.6583 0.516507 5.5791 0.920417C4.65623 1.27703 3.81808 1.8226 3.11839 2.52212C2.41871 3.22163 1.87295 4.05965 1.51611 4.98245C1.11065 6.06122 0.892175 7.20125 0.870102 8.35349C0.803102 9.8345 0.787109 10.3085 0.787109 14.0815C0.787109 17.8546 0.803102 18.3256 0.870102 19.8086C0.893761 20.9607 1.11219 22.1004 1.51611 23.1796C1.87332 24.1022 2.41908 24.94 3.11852 25.6396C3.81795 26.3392 4.65567 26.8852 5.57811 27.2427C6.6573 27.6466 7.79706 27.865 8.94912 27.8887C10.4321 27.9557 10.9041 27.9717 14.6771 27.9717C18.4501 27.9717 18.9211 27.9557 20.4041 27.8887C21.5568 27.865 22.6972 27.6466 23.7771 27.2427C24.6992 26.8846 25.5366 26.3384 26.2359 25.6389C26.9353 24.9393 27.4813 24.1018 27.8391 23.1796C28.2415 22.1 28.4598 20.9605 28.4851 19.8086C28.5521 18.3276 28.5681 17.8556 28.5681 14.0815C28.5681 10.3075 28.5521 9.8355 28.4851 8.35349C28.4598 7.20159 28.2415 6.06209 27.8391 4.98245C27.4817 4.05997 26.9358 3.22222 26.2362 2.52277C25.5366 1.82332 24.6987 1.27757 23.7761 0.920417C22.6956 0.516473 21.5545 0.298065 20.4011 0.274415C18.9201 0.207414 18.4481 0.191406 14.6741 0.191406H14.6781ZM13.4311 2.69143H14.6781C18.3861 2.69143 18.8261 2.70643 20.2911 2.77143C21.1719 2.78178 22.0443 2.94383 22.8701 3.25044C23.4694 3.48153 24.0137 3.83555 24.4678 4.28973C24.922 4.7439 25.276 5.28816 25.5071 5.88746C25.8128 6.71342 25.9742 7.58583 25.9841 8.46649C26.0511 9.92951 26.0651 10.3665 26.0651 14.0775C26.0651 17.7886 26.0501 18.2256 25.9841 19.6886C25.9734 20.5692 25.812 21.4414 25.5071 22.2676C25.2749 22.866 24.9204 23.4094 24.4664 23.8631C24.0123 24.3168 23.4687 24.6709 22.8701 24.9026C22.0443 25.2093 21.1719 25.3713 20.2911 25.3817C18.8261 25.4487 18.3911 25.4616 14.6781 25.4616C10.9651 25.4616 10.5291 25.4487 9.06511 25.3817C8.18402 25.3701 7.31142 25.2077 6.48511 24.9016C5.88592 24.6707 5.34173 24.3168 4.88756 23.8628C4.43339 23.4088 4.07932 22.8647 3.84812 22.2656C3.54148 21.4398 3.37944 20.5674 3.36911 19.6866C3.30211 18.2226 3.28911 17.7866 3.28911 14.0735C3.28911 10.3605 3.30211 9.92551 3.36911 8.46249C3.37975 7.58139 3.54178 6.70867 3.84812 5.88247C4.0799 5.28358 4.43416 4.73968 4.88825 4.28559C5.34233 3.8315 5.88623 3.47722 6.48511 3.24544C7.31131 2.93911 8.18402 2.7771 9.06511 2.76644C10.3461 2.70944 10.8431 2.69144 13.4311 2.68844V2.69143ZM22.0931 4.99846C21.7634 4.99846 21.4411 5.09623 21.167 5.27941C20.8929 5.46258 20.6792 5.72293 20.553 6.02754C20.4268 6.33214 20.3938 6.66733 20.4582 6.99069C20.5225 7.31406 20.6812 7.6111 20.9144 7.84423C21.1475 8.07737 21.4445 8.23614 21.7679 8.30046C22.0913 8.36478 22.4264 8.33177 22.731 8.2056C23.0357 8.07942 23.296 7.86576 23.4792 7.59162C23.6624 7.31748 23.7601 6.99517 23.7601 6.66547C23.7596 6.22369 23.5837 5.8002 23.2712 5.48801C22.9586 5.17582 22.5349 5.00046 22.0931 5.00046V4.99846ZM14.6781 6.94748C13.2673 6.94728 11.8881 7.36545 10.715 8.14912C9.54181 8.93279 8.62739 10.0468 8.08736 11.3501C7.54733 12.6535 7.40593 14.0878 7.68105 15.4715C7.95617 16.8553 8.63544 18.1264 9.63297 19.124C10.6305 20.1217 11.9015 20.8012 13.2852 21.0765C14.6689 21.3518 16.1031 21.2106 17.4066 20.6707C18.71 20.1309 19.8241 19.2166 20.6079 18.0436C21.3918 16.8705 21.8101 15.4914 21.8101 14.0805C21.8096 12.1892 21.058 10.3754 19.7206 9.038C18.3832 7.70059 16.5695 6.949 14.6781 6.94847V6.94748ZM14.6781 9.4475C15.5938 9.4477 16.4888 9.71938 17.25 10.2282C18.0113 10.737 18.6046 11.4602 18.9549 12.3062C19.3052 13.1521 19.3968 14.083 19.2181 14.9811C19.0394 15.8791 18.5985 16.704 17.951 17.3515C17.3036 17.9989 16.4787 18.4399 15.5806 18.6186C14.6826 18.7972 13.7517 18.7057 12.9058 18.3553C12.0598 18.005 11.3367 17.4117 10.8278 16.6505C10.319 15.8892 10.0473 14.9942 10.0471 14.0785C10.0476 12.8508 10.5358 11.6734 11.4043 10.8055C12.2727 9.93765 13.4503 9.45023 14.6781 9.45049V9.4475Z" fill="white"/>
</svg>
